<?xml version="1.0" encoding="utf-8"?>
<!-- Generator: Adobe Illustrator 25.2.0, SVG Export Plug-In . SVG Version: 6.00 Build 0)  -->
<svg version="1.1" id="Capa_1" xmlns="http://www.w3.org/2000/svg" xmlns:xlink="http://www.w3.org/1999/xlink" x="0px" y="0px"
	 viewBox="0 0 560.1 225.2" style="enable-background:new 0 0 560.1 225.2;" xml:space="preserve">
<style type="text/css">
	.st0{fill:none;stroke:#FFFFFF;stroke-width:2;}
	.st1{fill:#FFFFFF;stroke:#FFFFFF;}
</style>
<g id="Grupo_6522" transform="translate(-3114.505 -785.545)">
	<g id="Grupo_6286" transform="translate(3115.661 786.545)">
		<g id="Grupo_6280" transform="translate(0)">
			<path id="Trazado_29236" class="st0" d="M149.7,67.3h248.6l2.2,15.3l7.6,52.2H245.7L205,175.5v-40.6h-45.5L149.7,67.3z"/>
		</g>
		<g id="Grupo_6285" transform="translate(51.344 24.61)">
			<g id="Grupo_6281" transform="translate(145.346 0)">
				<path id="Trazado_29237" class="st1" d="M149.7,75.9c0,4.7,3.8,8.5,8.5,8.5s8.5-3.8,8.5-8.5s-3.8-8.5-8.5-8.5
					C153.5,67.3,149.7,71.2,149.7,75.9L149.7,75.9z"/>
			</g>
			<g id="Grupo_6282" transform="translate(97.975 0)">
				<path id="Trazado_29238" class="st1" d="M149.7,75.9c0,4.7,3.8,8.5,8.5,8.5s8.5-3.8,8.5-8.5s-3.8-8.5-8.5-8.5
					C153.5,67.3,149.7,71.2,149.7,75.9L149.7,75.9z"/>
			</g>
			<g id="Grupo_6283" transform="translate(50.603 0)">
				<path id="Trazado_29239" class="st1" d="M149.7,75.9c0,4.7,3.8,8.5,8.5,8.5s8.5-3.8,8.5-8.5s-3.8-8.5-8.5-8.5
					C153.5,67.3,149.7,71.2,149.7,75.9L149.7,75.9z"/>
			</g>
			<g id="Grupo_6284" transform="translate(0 0)">
				<path id="Trazado_29240" class="st1" d="M149.7,75.9c0,4.7,3.8,8.5,8.5,8.5s8.5-3.8,8.5-8.5s-3.8-8.5-8.5-8.5
					C153.5,67.3,149.7,71.2,149.7,75.9L149.7,75.9z"/>
			</g>
		</g>
	</g>
</g>
</svg>
