<?xml version="1.0" encoding="utf-8"?>
<!-- Generator: Adobe Illustrator 25.2.0, SVG Export Plug-In . SVG Version: 6.00 Build 0)  -->
<svg version="1.1" id="Capa_1" xmlns="http://www.w3.org/2000/svg" xmlns:xlink="http://www.w3.org/1999/xlink" x="0px" y="0px"
	 viewBox="0 0 560.1 658.6" style="enable-background:new 0 0 560.1 658.6;" xml:space="preserve">
<style type="text/css">
	.st0{fill:#FFFFFF;}
</style>
<g id="Grupo_6701" transform="translate(-109.258 -2679.074)">
	<g id="Grupo_6671" transform="translate(238.497 2957.363)">
		<g id="Grupo_6664" transform="translate(0)">
			<path id="Trazado_29426" class="st0" d="M262.9,244l14.4-85.8h-1.2c-0.8,0-76-0.1-109,0.4l-37-39.9l1.4,116.5h0.9
				c17.8,0.9,35.3,2.5,52.1,4.1c25,2.3,50.8,4.7,77.5,4.7L262.9,244z M275,160.2l-13.8,81.9c-26.3-0.1-51.8-2.4-76.5-4.7
				c-16.6-1.5-33.7-3.1-51.3-4l-1.3-109.5l34.1,36.8h0.4C197.2,160.1,265.3,160.2,275,160.2L275,160.2z"/>
		</g>
	</g>
	<g id="Grupo_6685" transform="translate(326.007 2642.189) rotate(60)">
		<g id="Grupo_6673" transform="translate(63.544 207.03)">
			<path id="Trazado_29431" class="st0" d="M290.5-53.4c-3.2,0.1-6.3,1.3-8.7,3.5c-2.9,2.7-7.3,9.2-4.5,22.6
				c2.5,11.7,8,22.5,16,31.3c-3.8,3.8-8.2,7.1-12.9,9.7c-30,16.9-73.7,10.4-111.3-16.7l-1.2,1.6c18.2,13.1,38.1,21.7,57.6,25
				c20.8,3.5,40.1,0.7,55.8-8.2c4.9-2.7,9.3-6.1,13.3-10c5.8,6,12.6,10.8,20.1,14.4c19.1,9.2,41.4,8.8,60.2-0.9l-0.9-1.8
				c-18.3,9.5-39.9,9.8-58.5,0.9c-7.3-3.4-13.9-8.2-19.5-14c6.3-6.6,10.6-14.9,12.2-23.9c1.7-10.7-1.2-21.1-8-28.5
				c-1.8-2.1-4.1-3.7-6.7-4.6C292.6-53.3,291.6-53.4,290.5-53.4z M294.8,2.6c-7.7-8.6-13.1-19-15.4-30.3
				c-2.7-12.5,1.3-18.3,3.9-20.7c2.6-2.5,6.3-3.5,9.8-2.6c2.3,0.8,4.3,2.2,5.8,4.1c6.4,7,9.1,16.8,7.5,26.9
				C304.8-11.6,300.8-3.6,294.8,2.6z"/>
		</g>
		<g id="Grupo_6674" transform="translate(47.638 0)">
			<path id="Trazado_29432" class="st0" d="M175.6-53.4c-2.8,3.1-5.3,6.5-7.6,10l1.7,1.1c2.2-3.4,4.7-6.7,7.4-9.7L175.6-53.4z"/>
		</g>
		<g id="Grupo_6675" transform="translate(31.175 18.402)">
			
				<rect id="Rect치ngulo_3075" x="171.9" y="-54.2" transform="matrix(0.7985 0.6021 -0.6021 0.7985 6.4092 -113.6486)" class="st0" width="2" height="13.9"/>
		</g>
		<g id="Grupo_6676" transform="translate(18.647 41.473)">
			<path id="Trazado_29433" class="st0" d="M175.1-53.4c-2.7,3.6-5,7.5-7.1,11.5l1.8,0.9c2-3.9,4.3-7.7,6.9-11.2L175.1-53.4z"/>
		</g>
		<g id="Grupo_6677" transform="translate(9.431 64.871)">
			<path id="Trazado_29434" class="st0" d="M173-53.4c-1.9,4-3.3,8.1-4.3,12.3l-0.7,0.3l0.7,1.9l1.8-0.6l0.1-0.5
				c0.9-4.3,2.4-8.5,4.2-12.5L173-53.4z"/>
		</g>
		<g id="Grupo_6678" transform="translate(3.141 90.973)">
			<path id="Trazado_29435" class="st0" d="M171.1-53.4c-1.8,4.5-2.6,9.2-2.5,14.1c0,1.1-0.2,1.9-0.5,2l0.5,1.9c1.4-0.4,2.1-1.7,2-4
				c-0.1-4.5,0.7-9.1,2.4-13.3L171.1-53.4z"/>
		</g>
		<g id="Grupo_6679" transform="translate(0 120.033)">
			<path id="Trazado_29436" class="st0" d="M170.5-53.4l-2,0.1c0.2,4.6,0,9.3-0.5,13.9l2,0.2C170.5-43.9,170.7-48.7,170.5-53.4z"/>
		</g>
		<g id="Grupo_6680" transform="translate(1.335 144.665)">
			
				<rect id="Rect치ngulo_3076" x="162.3" y="-47.3" transform="matrix(3.907405e-02 0.9992 -0.9992 3.907405e-02 116.4386 -213.6385)" class="st0" width="14" height="2"/>
		</g>
		<g id="Grupo_6681" transform="translate(2.793 170.763)">
			<path id="Trazado_29437" class="st0" d="M169.9-53.4l-1.9,0.6c1.5,4.7,2.7,9.4,3.6,14.3l2-0.4C172.6-43.8,171.4-48.6,169.9-53.4z
				"/>
		</g>
		<g id="Grupo_6682" transform="translate(11.769 197.791)">
			
				<rect id="Rect치ngulo_3077" x="164.7" y="-46.8" transform="matrix(0.4899 0.8718 -0.8718 0.4899 48.231 -174.058)" class="st0" width="16.3" height="2"/>
		</g>
		<g id="Grupo_6683" transform="translate(28.703 225.013)">
			<path id="Trazado_29438" class="st0" d="M169.4-53.4l-1.4,1.5c3.6,3.4,7,7.1,10.1,11l1.6-1.3C176.5-46.2,173-49.9,169.4-53.4z"/>
		</g>
		<g id="Grupo_6684" transform="translate(47.092 243.126)">
			
				<rect id="Rect치ngulo_3078" x="167.2" y="-49.7" transform="matrix(0.7904 0.6126 -0.6126 0.7904 6.5791 -116.5454)" class="st0" width="12.7" height="2"/>
		</g>
	</g>
</g>
</svg>
