<?xml version="1.0" encoding="utf-8"?>
<!-- Generator: Adobe Illustrator 25.2.0, SVG Export Plug-In . SVG Version: 6.00 Build 0)  -->
<svg version="1.1" id="Capa_1" xmlns="http://www.w3.org/2000/svg" xmlns:xlink="http://www.w3.org/1999/xlink" x="0px" y="0px"
	 viewBox="0 0 110.7 101.5" style="enable-background:new 0 0 110.7 101.5;" xml:space="preserve">
<style type="text/css">
	.st0{fill:#CE0034;}
</style>
<path class="st0" d="M63.4,32.1H36.3v48.7h38V43.3L63.4,32.1z M48.7,74.7c-1.6,0-3.2,0-4.8,0c-0.3,0-0.4-0.1-0.4-0.3c0-3,0-6,0-9
	v-8.9c0-0.4,0-0.4,0.4-0.4h4.7c0.4,0,0.4,0,0.4,0.4c0,6,0,11.9,0,17.9C49.1,74.6,49,74.7,48.7,74.7z M52.9,50.1
	c-0.8,0.6-1.6,1-2.6,1.2c-0.6,0.1-1.2,0.2-1.8,0.1c-1-0.1-2-0.4-2.8-1c-0.8-0.5-1.4-1.2-1.9-2c-0.4-0.6-0.6-1.2-0.7-1.9
	c-0.3-1.3-0.1-2.7,0.4-3.9c0.4-0.8,0.9-1.6,1.7-2.2c0.9-0.8,2-1.2,3.2-1.4c0.4-0.1,0.4,0,0.4,0.3c0,2,0,3.9,0,5.9
	c0,0.2,0.1,0.3,0.3,0.3c1,0,2,0,3,0h3c0.3,0,0.3,0,0.3,0.3c-0.1,0.7-0.3,1.5-0.7,2.1C54.1,48.9,53.6,49.5,52.9,50.1z M59.1,74.3
	c0,0.4,0,0.4-0.4,0.4c-1.6,0-3.2,0-4.7,0c-0.3,0-0.4-0.1-0.4-0.4c0-2.5,0-4.9,0-7.4c0-2.4,0-4.9,0-7.3c0-0.4,0-0.4,0.4-0.4
	c1.6,0,3.1,0,4.7,0c0.4,0,0.4,0,0.4,0.4C59.1,64.6,59.1,69.4,59.1,74.3z M68.9,74.4c0,0.3-0.1,0.4-0.3,0.4c-1.6,0-3.2,0-4.9,0
	c-0.3,0-0.3-0.1-0.3-0.3c0-1.7,0-3.4,0-5.1s0-3.4,0-5.1c0-0.3,0.1-0.4,0.4-0.4c1.6,0,3.2,0,4.8,0c0.3,0,0.4,0.1,0.4,0.4
	C68.9,67.6,68.9,71,68.9,74.4z"/>
</svg>
